<?xml version="1.0" encoding="utf-8"?>
<!-- Generator: Adobe Illustrator 16.0.0, SVG Export Plug-In . SVG Version: 6.00 Build 0)  -->
<!DOCTYPE svg PUBLIC "-//W3C//DTD SVG 1.1//EN" "http://www.w3.org/Graphics/SVG/1.1/DTD/svg11.dtd">
<svg version="1.1" id="Layer_2" xmlns="http://www.w3.org/2000/svg" xmlns:xlink="http://www.w3.org/1999/xlink" x="0px" y="0px"
	 width="148.908px" height="148.16px" viewBox="0 0 148.908 148.16" enable-background="new 0 0 148.908 148.16"
	 xml:space="preserve">
<radialGradient id="SVGID_1_" cx="75.9526" cy="74.0547" r="72.9558" gradientUnits="userSpaceOnUse">
	<stop  offset="0" style="stop-color:#808080"/>
	<stop  offset="1" style="stop-color:#666666"/>
</radialGradient>
<circle fill="url(#SVGID_1_)" cx="75.953" cy="74.054" r="72.956"/>
<path fill="#E6E6E6" d="M75.857,32.998c-11.667,0-21.16,9.492-21.16,21.16s9.492,21.16,21.16,21.16s21.16-9.492,21.16-21.16
	S87.524,32.998,75.857,32.998z M75.857,63.317c-5.059,0-9.16-4.101-9.16-9.16s4.101-9.16,9.16-9.16s9.16,4.101,9.16,9.16
	S80.916,63.317,75.857,63.317z"/>
<path fill="none" stroke="#E6E6E6" stroke-width="10" stroke-linecap="round" d="M55.975,77.491
	c11.594,11.092,30.098,10.086,39.765,0.402"/>
<polyline fill="none" stroke="#E6E6E6" stroke-width="10" stroke-linecap="round" points="59.19,111.491 75.25,91.157 
	92.523,110.491 "/>
</svg>
