<?xml version="1.0" encoding="utf-8"?>
<!-- Generator: Adobe Illustrator 16.0.0, SVG Export Plug-In . SVG Version: 6.00 Build 0)  -->
<!DOCTYPE svg PUBLIC "-//W3C//DTD SVG 1.1//EN" "http://www.w3.org/Graphics/SVG/1.1/DTD/svg11.dtd">
<svg version="1.1" id="Layer_2" xmlns="http://www.w3.org/2000/svg" xmlns:xlink="http://www.w3.org/1999/xlink" x="0px" y="0px"
	 width="147.865px" height="147.878px" viewBox="0 0 147.865 147.878" enable-background="new 0 0 147.865 147.878"
	 xml:space="preserve">
<symbol  id="В" viewBox="-72.956 -72.956 145.911 145.913">
	<radialGradient id="SVGID_1_" cx="0" cy="0" r="72.9559" gradientUnits="userSpaceOnUse">
		<stop  offset="0" style="stop-color:#808080"/>
		<stop  offset="1" style="stop-color:#666666"/>
	</radialGradient>
	<path fill="url(#SVGID_1_)" d="M72.956,0c0,40.292-32.663,72.956-72.956,72.956c-40.292,0-72.956-32.664-72.956-72.956
		c0-40.292,32.664-72.957,72.956-72.957C40.292-72.956,72.956-40.291,72.956,0z"/>
	<g>
		<path fill="#F2F2F2" d="M-29.597,40.624l28.151,0.932c11.86,0,29.843-4.658,30.582-19.124c0.406-7.943-5.469-14.666-10.291-17.066
			V5.043c10.432-1.932,17.291-8.533,17.291-19.158c0-22.378-27.008-24.31-41.297-24.31c-9.717,0-24.436,0.449-24.436,0.449V40.624z
			 M-9.305-23.292c2.287-0.322,5.001-0.322,8.288-0.322c7.431,0,14.86,2.416,14.86,10.143c0,6.762-5.715,9.982-15.861,9.982h-7.288
			V-23.292z M-9.162,10.678c9.559-0.781,16.133,2.583,15.863,8.533c-0.304,6.687-9.304,7.353-15.863,6.728V10.678z"/>
	</g>
</symbol>
<use xlink:href="#В"  width="145.911" height="145.913" x="-72.956" y="-72.956" transform="matrix(1 0 0 -1 72.9556 72.9565)" overflow="visible"/>
</svg>
