<?xml version="1.0" encoding="utf-8"?>
<!-- Generator: Adobe Illustrator 16.0.0, SVG Export Plug-In . SVG Version: 6.00 Build 0)  -->
<!DOCTYPE svg PUBLIC "-//W3C//DTD SVG 1.1//EN" "http://www.w3.org/Graphics/SVG/1.1/DTD/svg11.dtd">
<svg version="1.1" id="Layer_4" xmlns="http://www.w3.org/2000/svg" xmlns:xlink="http://www.w3.org/1999/xlink" x="0px" y="0px"
	 width="151.26px" height="155.225px" viewBox="0 0 151.26 155.225" enable-background="new 0 0 151.26 155.225"
	 xml:space="preserve">
<symbol  id="F" viewBox="-72.956 -72.956 145.911 145.913">
	<use xlink:href="#Круг"  width="145.911" height="145.913" x="-72.956" y="-72.956" overflow="visible"/>
	<g>
		<path fill="#E6E6E6" d="M-13.52-39.334V4.27h-7.232v13.657h7.232v0.147c0,6.667,2.034,14.013,7.006,18.533
			c4.294,4.068,10.284,5.537,15.256,5.537c3.843,0,7.78-0.452,10.153-1.13l-0.678-13.222c-1.469,0.452-4.277,0.791-6.537,0.791
			c-5.65,0-9.023-2.407-9.023-7.832v-2.825h13.074V4.27H3.771v-43.604H-13.52z"/>
	</g>
</symbol>
<symbol  id="Круг" viewBox="-72.956 -72.956 145.911 145.913">
	<radialGradient id="SVGID_1_" cx="-4.882812e-04" cy="0" r="72.9558" gradientUnits="userSpaceOnUse">
		<stop  offset="0" style="stop-color:#808080"/>
		<stop  offset="1" style="stop-color:#666666"/>
	</radialGradient>
	<path fill="url(#SVGID_1_)" d="M72.955,0c0,40.292-32.662,72.956-72.955,72.956c-40.292,0-72.956-32.664-72.956-72.956
		c0-40.292,32.664-72.957,72.956-72.957C40.293-72.956,72.955-40.291,72.955,0z"/>
</symbol>
<use xlink:href="#F"  width="145.911" height="145.913" x="-72.956" y="-72.956" transform="matrix(1 0 0 -1 76.1826 75.2207)" overflow="visible"/>
</svg>
